<?xml version="1.0" standalone="no"?>
<!DOCTYPE svg PUBLIC "-//W3C//DTD SVG 20010904//EN"
 "http://www.w3.org/TR/2001/REC-SVG-20010904/DTD/svg10.dtd">
<svg version="1.0" xmlns="http://www.w3.org/2000/svg"
 width="940.000000pt" height="940.000000pt" viewBox="0 0 940.000000 940.000000"
 preserveAspectRatio="xMidYMid meet">
<metadata>
Created by potrace 1.11, written by Peter Selinger 2001-2013
</metadata>
<g transform="translate(0.000000,940.000000) scale(0.100000,-0.100000)"
fill="#000000" stroke="none">
<path d="M1587 7444 c-1 -1 -36 -5 -77 -9 -86 -8 -99 -10 -120 -18 -8 -3 -37
-11 -65 -18 -98 -25 -324 -126 -380 -171 -5 -4 -48 -36 -95 -69 -80 -59 -250
-221 -250 -239 0 -9 31 -5 120 15 14 3 39 8 55 11 17 3 49 9 71 14 146 33 402
31 564 -5 14 -3 39 -8 55 -10 17 -3 55 -13 85 -21 30 -9 62 -18 70 -20 29 -6
105 -34 122 -44 10 -6 22 -10 27 -10 5 0 22 -5 38 -12 15 -6 30 -12 33 -13 48
-15 351 -165 380 -188 8 -7 31 -21 50 -31 40 -22 392 -255 400 -265 3 -4 21
-18 40 -31 43 -29 223 -162 230 -170 3 -3 30 -24 60 -47 30 -23 64 -50 75 -60
11 -10 30 -25 41 -34 57 -38 264 -235 264 -249 0 -4 -15 -28 -32 -55 -18 -27
-37 -56 -43 -64 -5 -9 -12 -18 -15 -21 -26 -24 -170 -241 -170 -256 0 -6 -6
-16 -12 -22 -7 -7 -13 -16 -14 -20 -1 -8 -9 -29 -34 -87 -18 -41 -54 -146 -53
-155 0 -3 -4 -16 -9 -30 -5 -14 -12 -33 -14 -42 -14 -62 -25 -114 -29 -143 -2
-11 -4 -20 -5 -20 -13 0 -20 -421 -7 -517 8 -67 40 -207 67 -298 20 -65 35
-105 74 -190 11 -25 20 -47 21 -50 3 -16 122 -219 134 -230 3 -3 22 -27 41
-55 19 -27 44 -61 55 -75 35 -43 219 -229 223 -225 2 2 16 -9 30 -24 28 -29
158 -119 227 -159 63 -36 243 -122 255 -122 6 0 18 -4 28 -9 35 -19 181 -61
272 -77 14 -3 32 -7 40 -9 63 -18 358 -25 485 -11 90 10 149 18 155 21 3 2 26
6 50 10 51 8 75 13 75 15 0 1 11 3 25 6 56 10 229 68 285 96 70 34 155 87 155
97 0 3 -71 6 -157 7 -210 1 -333 26 -476 95 -90 44 -202 118 -227 150 -3 3
-29 33 -58 66 -46 52 -122 163 -122 179 0 3 -10 26 -21 52 -83 182 -107 465
-53 631 24 72 66 172 94 221 14 25 31 57 39 72 12 23 16 25 34 15 12 -7 33
-23 48 -37 15 -14 58 -53 97 -88 38 -34 96 -88 128 -120 33 -32 109 -100 169
-152 61 -52 115 -99 121 -105 6 -5 35 -30 64 -55 30 -25 70 -59 89 -76 75 -64
194 -157 323 -254 73 -55 138 -103 143 -107 60 -46 360 -235 405 -256 8 -4 31
-17 50 -28 63 -38 264 -137 346 -169 43 -18 90 -37 104 -43 14 -6 27 -11 30
-12 3 0 48 -15 100 -32 100 -33 192 -58 250 -68 19 -3 53 -10 76 -15 112 -25
437 -34 569 -16 33 5 67 10 75 10 9 1 21 5 28 10 6 4 12 5 12 2 0 -2 27 2 60
10 32 7 74 16 92 19 66 12 275 87 366 132 126 63 133 76 30 53 -46 -11 -94
-21 -108 -24 -14 -3 -36 -8 -50 -11 -14 -3 -38 -9 -55 -13 -57 -12 -357 -5
-435 11 -41 8 -88 18 -105 22 -30 6 -82 21 -180 51 -48 15 -67 22 -117 44 -13
5 -51 20 -85 34 -100 41 -280 134 -403 209 -105 64 -334 215 -370 244 -8 7
-69 53 -134 103 -66 50 -137 106 -158 125 -22 18 -55 46 -75 62 -31 24 -189
158 -203 173 -3 3 -25 23 -50 44 -51 45 -215 193 -270 246 -20 19 -101 96
-180 170 -178 168 -222 211 -660 640 -557 547 -691 676 -885 855 -60 55 -126
116 -146 135 -35 32 -70 63 -214 190 -29 25 -71 61 -94 80 -23 19 -50 42 -59
50 -57 53 -346 278 -422 330 -12 8 -28 21 -36 28 -7 6 -16 12 -21 12 -4 0 -19
9 -33 21 -31 25 -144 99 -224 146 -341 201 -621 306 -901 338 -53 7 -204 13
-208 9z"/>
<path d="M606 6864 c-144 -23 -288 -89 -371 -171 -37 -36 -86 -93 -102 -119
-38 -59 -96 -202 -110 -274 -16 -82 -25 -200 -14 -200 4 0 23 19 42 42 96 117
125 146 178 179 26 15 90 40 121 46 75 14 122 18 225 18 127 0 227 -10 257
-26 10 -5 18 -8 18 -5 0 18 247 -94 307 -140 17 -13 36 -24 41 -24 6 0 12 -3
14 -7 2 -5 28 -29 58 -54 219 -185 387 -422 600 -848 39 -77 70 -143 70 -146
0 -3 16 -39 35 -81 19 -41 35 -77 35 -79 0 -3 13 -33 28 -67 16 -35 40 -90 53
-123 13 -33 28 -63 32 -66 5 -3 8 -9 8 -13 -1 -11 50 -138 107 -266 9 -19 16
-37 17 -40 4 -20 145 -304 196 -398 128 -232 280 -462 385 -582 113 -130 162
-180 256 -265 72 -65 95 -84 143 -120 22 -16 45 -34 50 -39 12 -13 18 -17 165
-105 161 -96 423 -215 520 -236 19 -4 40 -10 45 -14 6 -3 12 -6 15 -7 14 -2
99 -25 128 -35 18 -6 45 -13 60 -15 15 -3 54 -11 87 -19 33 -7 78 -16 100 -20
22 -3 62 -10 88 -14 27 -5 45 -5 40 0 -9 9 -87 37 -122 45 -13 3 -34 10 -45
16 -12 6 -23 11 -26 11 -6 0 -6 0 -70 20 -133 44 -440 180 -448 199 -2 4 -9 8
-15 8 -10 0 -163 90 -192 112 -5 4 -39 29 -75 55 -205 148 -376 329 -522 553
-37 58 -71 110 -76 116 -25 35 -122 224 -167 324 -21 47 -48 109 -61 138 -13
29 -24 57 -24 62 0 6 -5 18 -10 28 -10 17 -68 172 -76 202 -2 8 -21 65 -42
125 -21 61 -39 115 -40 120 -1 6 -13 48 -28 95 -14 47 -39 129 -55 183 -28 95
-80 267 -101 337 -6 19 -13 42 -16 50 -3 8 -6 17 -7 20 0 3 -9 30 -20 60 -10
30 -20 60 -21 65 -1 6 -25 71 -54 145 -28 74 -52 141 -52 148 -1 6 -5 12 -10
12 -4 0 -8 5 -8 11 0 6 -17 48 -38 93 -21 44 -39 84 -41 88 -1 4 -24 44 -51
89 -28 44 -50 84 -50 88 0 4 -8 16 -17 27 -10 11 -34 42 -53 69 -49 70 -74 99
-165 190 -100 99 -121 116 -219 182 -67 45 -275 155 -291 154 -2 0 -25 8 -49
19 -53 22 -232 68 -301 76 -96 11 -191 10 -269 -2z"/>
<path d="M5050 5241 c0 -9 212 -222 320 -321 45 -41 101 -92 124 -114 22 -21
74 -68 115 -105 40 -36 81 -73 90 -82 9 -9 43 -40 76 -69 33 -29 98 -87 144
-129 45 -42 93 -85 106 -96 84 -74 151 -133 169 -150 26 -25 200 -171 245
-205 18 -14 47 -37 64 -52 18 -15 36 -28 41 -28 5 0 16 -8 25 -17 9 -10 39
-34 66 -52 28 -19 52 -38 55 -41 3 -4 12 -9 20 -13 16 -7 197 -129 217 -147 7
-5 15 -10 17 -10 3 0 34 -17 68 -38 35 -20 77 -44 93 -52 17 -8 32 -18 35 -21
6 -7 261 -131 275 -133 5 -2 28 -10 50 -20 115 -50 350 -114 437 -118 32 -2
58 -5 58 -8 0 -8 278 -4 340 5 30 4 73 9 95 10 22 2 47 6 55 8 8 3 42 11 75
17 33 7 92 21 130 32 39 10 81 21 95 24 14 3 29 9 35 15 5 5 16 9 24 9 18 0
254 100 261 111 3 4 18 12 33 18 43 17 187 115 242 166 l50 45 -40 -16 c-22
-8 -49 -17 -60 -20 -11 -2 -31 -8 -45 -14 -14 -5 -50 -16 -80 -24 -30 -8 -82
-23 -115 -32 -33 -9 -69 -17 -80 -19 -11 -1 -45 -7 -75 -13 -183 -37 -388 -47
-540 -27 -30 5 -66 9 -80 11 -14 1 -26 3 -27 4 -4 3 -13 5 -58 15 -22 4 -46
12 -52 18 -7 5 -13 7 -13 3 0 -8 -132 41 -225 84 -187 86 -469 267 -680 435
-11 9 -33 26 -49 38 -37 28 -277 218 -293 232 -7 5 -19 15 -27 22 -57 48 -369
278 -451 332 -145 97 -228 148 -360 216 -86 45 -161 79 -290 132 -81 33 -266
93 -287 93 -10 0 -18 5 -18 12 0 6 -3 9 -6 6 -3 -3 -29 1 -57 9 -29 7 -62 16
-74 18 -26 6 -48 10 -118 26 -27 6 -61 12 -75 14 -14 2 -35 6 -47 9 -13 3 -23
1 -23 -3z"/>
<path d="M2346 3840 c14 -41 29 -85 35 -97 19 -47 34 -78 40 -83 3 -3 11 -21
19 -40 8 -19 40 -80 73 -135 73 -125 79 -136 95 -153 6 -7 12 -18 12 -23 0 -5
7 -17 16 -26 9 -10 38 -49 65 -88 57 -82 77 -110 98 -135 9 -10 27 -34 41 -51
14 -18 35 -44 47 -56 11 -13 36 -42 54 -64 32 -40 161 -168 209 -209 14 -12
38 -33 55 -48 46 -41 202 -158 243 -183 20 -13 39 -26 42 -29 6 -8 118 -75
185 -112 167 -93 485 -225 557 -232 3 -1 10 -4 14 -8 4 -5 17 -8 29 -8 12 0
25 -3 29 -7 3 -4 14 -8 24 -9 9 -1 26 -5 37 -7 111 -29 280 -61 375 -72 218
-24 551 -24 730 0 52 7 122 16 145 20 11 1 43 6 70 10 28 4 55 10 60 14 6 4
17 7 25 6 8 -1 37 5 65 13 27 8 61 16 75 18 14 3 39 9 56 15 17 5 40 11 50 14
28 5 234 75 269 90 17 7 84 37 150 65 132 58 282 135 363 186 29 19 56 34 60
34 7 0 83 59 135 105 15 14 31 25 36 25 5 0 11 4 13 8 2 5 29 28 61 51 32 24
56 45 54 47 -1 2 -34 6 -72 9 -94 8 -160 16 -240 31 -42 8 -220 68 -226 77 -3
5 -9 8 -13 8 -7 -1 -22 5 -124 46 l-84 33 -41 -34 c-65 -51 -147 -107 -147
-99 0 5 -4 3 -8 -3 -6 -10 -221 -127 -229 -125 -2 0 -29 -11 -60 -25 -65 -29
-239 -95 -256 -98 -7 -1 -16 -4 -22 -7 -5 -4 -23 -10 -40 -14 -16 -5 -34 -9
-40 -11 -36 -11 -169 -43 -174 -42 -3 0 -9 -1 -13 -2 -13 -4 -21 -6 -69 -13
-25 -4 -59 -10 -75 -13 -175 -32 -543 -37 -744 -9 -32 4 -147 23 -180 30 -54
11 -67 14 -130 30 -36 9 -69 18 -75 19 -124 27 -458 165 -595 246 -146 87
-321 205 -328 222 -2 5 -10 8 -18 8 -8 0 -14 4 -14 8 0 4 -21 24 -47 44 -123
94 -273 244 -399 398 -38 47 -72 87 -76 88 -5 2 -8 9 -8 17 0 7 -6 18 -14 24
-7 6 -34 42 -60 79 -25 37 -59 86 -76 110 -16 23 -30 47 -30 52 0 6 -4 10 -8
10 -4 0 -16 15 -27 33 -10 17 -23 37 -27 42 -51 63 -50 64 -22 -15z"/>
</g>
</svg>
