<?xml version="1.0" encoding="UTF-8"?>
<!DOCTYPE svg PUBLIC "-//W3C//DTD SVG 1.1//EN" "http://www.w3.org/Graphics/SVG/1.1/DTD/svg11.dtd">
<!-- Creator: CorelDRAW X7 -->
<svg xmlns="http://www.w3.org/2000/svg" xml:space="preserve" width="40" height="40" version="1.1" style="shape-rendering:geometricPrecision; text-rendering:geometricPrecision; image-rendering:optimizeQuality; fill-rule:evenodd; clip-rule:evenodd"
viewBox="0 0 2562 2222"
 xmlns:xlink="http://www.w3.org/1999/xlink">
 <defs>
  <style type="text/css">
   <![CDATA[
    .fil1 {fill:#000000}
    .fil0 {fill:#000000}
    .fil2 {fill:#000000}
   ]]>
  </style>
 </defs>
 <g id="Layer_x0020_1">
  <metadata id="CorelCorpID_0Corel-Layer"/>
  <g id="_1451684731296">
   <path class="fil0" d="M1542 1562c-56,53 -219,85 -328,69 -308,-46 -498,-366 -381,-662 28,-73 61,-96 89,-146 -51,-61 -238,-197 -323,-245 -269,-152 -399,-68 -437,-72 54,-70 161,-140 269,-144 128,-6 248,57 342,118 282,183 631,594 929,839 122,100 294,220 463,236 80,7 105,-8 168,-20 -54,42 -183,76 -279,74 -116,-3 -230,-46 -324,-98 -141,-78 -236,-161 -350,-260 -27,-23 -81,-80 -106,-95 -39,68 -59,117 -44,200 28,156 161,225 312,206z"/>
   <path class="fil1" d="M637 1240c-103,-209 -209,-639 -530,-587 -65,11 -68,39 -107,79 4,-185 144,-250 304,-198 383,127 296,589 540,921 143,194 370,230 398,249 -127,-18 -245,-58 -340,-125 -124,-88 -198,-204 -265,-339z"/>
   <path class="fil2" d="M2126 1507c-157,-33 -322,-154 -424,-242 -46,-41 -319,-283 -327,-305 278,47 402,168 583,309 221,172 343,210 604,119 -102,97 -298,147 -436,119z"/>
   <path class="fil2" d="M854 1582c81,65 180,116 295,143 120,28 234,23 338,-1 88,-21 211,-76 257,-121 88,37 117,51 211,55 -12,5 -62,49 -80,61 -330,209 -763,194 -1048,-88 -67,-67 -174,-216 -194,-309 71,105 115,176 221,260z"/>
  </g>
 </g>
</svg>
